<?xml version="1.0" encoding="UTF-8" standalone="no"?>
<!-- Created with Inkscape (http://www.inkscape.org/) -->

<svg
   xmlns:dc="http://purl.org/dc/elements/1.1/"
   xmlns:cc="http://creativecommons.org/ns#"
   xmlns:rdf="http://www.w3.org/1999/02/22-rdf-syntax-ns#"
   xmlns:svg="http://www.w3.org/2000/svg"
   xmlns="http://www.w3.org/2000/svg"
   xmlns:sodipodi="http://sodipodi.sourceforge.net/DTD/sodipodi-0.dtd"
   xmlns:inkscape="http://www.inkscape.org/namespaces/inkscape"
   width="800"
   height="800"
   viewBox="0 0 2116.6667 2116.6667"
   version="1.1"
   id="svg8"
   inkscape:version="0.92.3 (2405546, 2018-03-11)"
   sodipodi:docname="is-chooslr.svg"
   inkscape:export-filename="C:\Users\FMVA77HWZ\Desktop\chooslr\rogo.png"
   inkscape:export-xdpi="866.98669"
   inkscape:export-ydpi="866.98669">
  <defs
     id="defs2" />
  <sodipodi:namedview
     id="base"
     pagecolor="#000000"
     bordercolor="#666666"
     borderopacity="1.0"
     inkscape:pageopacity="0"
     inkscape:pageshadow="2"
     inkscape:zoom="0.37918598"
     inkscape:cx="370.96712"
     inkscape:cy="425.81338"
     inkscape:document-units="mm"
     inkscape:current-layer="svg8"
     showgrid="false"
     units="px"
     inkscape:window-width="1842"
     inkscape:window-height="1051"
     inkscape:window-x="-9"
     inkscape:window-y="-9"
     inkscape:window-maximized="1"
     inkscape:pagecheckerboard="true"
     showguides="false" />
  <rect
     y="-2.6384989e-005"
     x="-3.1332962e-015"
     height="2116.6667"
     width="2116.6667"
     id="rect4495"
     style="font-style:normal;font-variant:normal;font-weight:bold;font-stretch:normal;font-size:medium;line-height:1.25;font-family:'Century Gothic';-inkscape-font-specification:'Century Gothic, Bold';font-variant-ligatures:normal;font-variant-caps:normal;font-variant-numeric:normal;font-feature-settings:normal;text-align:center;letter-spacing:0px;word-spacing:0px;writing-mode:lr-tb;text-anchor:middle;opacity:1;fill:#ffffff;fill-opacity:1;stroke:none;stroke-width:230.03804016;stroke-linecap:square;stroke-linejoin:round;stroke-miterlimit:4;stroke-dasharray:none;stroke-dashoffset:0;stroke-opacity:1;paint-order:normal" />
  <path
     inkscape:connector-curvature="0"
     id="path4516"
     style="font-style:normal;font-variant:normal;font-weight:bold;font-stretch:normal;font-size:84.66666412px;line-height:1.25;font-family:'Century Gothic';-inkscape-font-specification:'Century Gothic, Bold';font-variant-ligatures:normal;font-variant-caps:normal;font-variant-numeric:normal;font-feature-settings:normal;text-align:center;letter-spacing:0px;word-spacing:0px;writing-mode:lr-tb;text-anchor:middle;fill:#264488;fill-opacity:1;stroke:none;stroke-width:20.83218384"
     d="m 346.96292,1585.0565 q 14.0319,0 26.33259,7.016 12.39178,7.0159 19.31667,19.0433 6.92478,12.0273 6.92478,25.9681 0,14.0319 -7.01594,26.2415 -6.92482,12.2096 -18.95218,19.1344 -12.02732,6.8337 -26.51476,6.8337 -21.32118,0 -36.44648,-15.1253 -15.03415,-15.2164 -15.03415,-36.902 0,-23.2347 17.03873,-38.7245 14.94303,-13.4852 34.35074,-13.4852 z m 0.36449,23.4169 q -11.57178,0 -19.31658,8.1094 -7.6538,8.0182 -7.6538,20.5922 0,12.9385 7.56267,20.9568 7.65372,8.0182 19.31662,8.0182 11.66282,0 19.40771,-8.1093 7.74488,-8.1094 7.74488,-20.8657 0,-12.7562 -7.65379,-20.6834 -7.56261,-8.0182 -19.40771,-8.0182 z" />
  <path
     inkscape:connector-curvature="0"
     id="path4518"
     style="font-style:normal;font-variant:normal;font-weight:bold;font-stretch:normal;font-size:84.66666412px;line-height:1.25;font-family:'Century Gothic';-inkscape-font-specification:'Century Gothic, Bold';font-variant-ligatures:normal;font-variant-caps:normal;font-variant-numeric:normal;font-feature-settings:normal;text-align:center;letter-spacing:0px;word-spacing:0px;writing-mode:lr-tb;text-anchor:middle;opacity:0.97000002;fill:#f4c100;fill-opacity:1;stroke:none;stroke-width:20.83383751"
     d="m 1826.6689,446.61603 q 14.033,0 26.3347,7.0165 12.3928,7.01651 19.3181,19.04482 6.9253,12.02831 6.9253,25.97023 0,14.033 -7.0165,26.24356 -6.9254,12.21052 -18.9536,19.1359 -12.0284,6.83426 -26.517,6.83426 -21.3229,0 -36.4494,-15.12651 -15.0354,-15.2176 -15.0354,-36.905 0,-23.23649 17.0401,-38.72749 14.9443,-13.48627 34.3537,-13.48627 z m 0.3644,23.41877 q -11.5727,0 -19.3181,8.10997 -7.6544,8.01888 -7.6544,20.5939 0,12.93953 7.5632,20.95838 7.6544,8.01889 19.3182,8.01889 11.6638,0 19.4094,-8.11001 7.7454,-8.10994 7.7454,-20.86726 0,-12.7573 -7.6543,-20.68502 -7.5633,-8.01885 -19.4094,-8.01885 z" />
  <circle
     r="16.431303"
     cy="1541.4844"
     cx="307.65427"
     id="path4544-3"
     style="font-style:normal;font-variant:normal;font-weight:bold;font-stretch:normal;font-size:84.66666412px;line-height:1.25;font-family:'Century Gothic';-inkscape-font-specification:'Century Gothic, Bold';font-variant-ligatures:normal;font-variant-caps:normal;font-variant-numeric:normal;font-feature-settings:normal;text-align:center;letter-spacing:0px;word-spacing:0px;writing-mode:lr-tb;text-anchor:middle;opacity:1;fill:#264488;fill-opacity:1;stroke:none;stroke-width:23.35886383;stroke-linecap:square;stroke-linejoin:round;stroke-miterlimit:4;stroke-dasharray:none;stroke-dashoffset:0;stroke-opacity:1;paint-order:normal" />
  <circle
     r="7.7968826"
     cy="1546.7928"
     cx="227.82812"
     id="path4544-3-5-2"
     style="font-style:normal;font-variant:normal;font-weight:bold;font-stretch:normal;font-size:84.66666412px;line-height:1.25;font-family:'Century Gothic';-inkscape-font-specification:'Century Gothic, Bold';font-variant-ligatures:normal;font-variant-caps:normal;font-variant-numeric:normal;font-feature-settings:normal;text-align:center;letter-spacing:0px;word-spacing:0px;writing-mode:lr-tb;text-anchor:middle;opacity:1;fill:#264488;fill-opacity:1;stroke:none;stroke-width:11.08410645;stroke-linecap:square;stroke-linejoin:round;stroke-miterlimit:4;stroke-dasharray:none;stroke-dashoffset:0;stroke-opacity:1;paint-order:normal" />
  <circle
     transform="rotate(-171.46995)"
     r="16.431303"
     cy="-352.74429"
     cx="-1962.8947"
     id="path4544-3-4"
     style="font-style:normal;font-variant:normal;font-weight:bold;font-stretch:normal;font-size:84.66666412px;line-height:1.25;font-family:'Century Gothic';-inkscape-font-specification:'Century Gothic, Bold';font-variant-ligatures:normal;font-variant-caps:normal;font-variant-numeric:normal;font-feature-settings:normal;text-align:center;letter-spacing:0px;word-spacing:0px;writing-mode:lr-tb;text-anchor:middle;opacity:1;fill:#f4c100;fill-opacity:1;stroke:none;stroke-width:23.35886192;stroke-linecap:square;stroke-linejoin:round;stroke-miterlimit:4;stroke-dasharray:none;stroke-dashoffset:0;stroke-opacity:1;paint-order:normal" />
  <circle
     r="9.4536381"
     transform="rotate(-171.46995)"
     cy="-287.69614"
     cx="-1956.6635"
     id="path4544-3-2-1"
     style="font-style:normal;font-variant:normal;font-weight:bold;font-stretch:normal;font-size:84.66666412px;line-height:1.25;font-family:'Century Gothic';-inkscape-font-specification:'Century Gothic, Bold';font-variant-ligatures:normal;font-variant-caps:normal;font-variant-numeric:normal;font-feature-settings:normal;text-align:center;letter-spacing:0px;word-spacing:0px;writing-mode:lr-tb;text-anchor:middle;opacity:1;fill:#f4c100;fill-opacity:1;stroke:none;stroke-width:13.43936157;stroke-linecap:square;stroke-linejoin:round;stroke-miterlimit:4;stroke-dasharray:none;stroke-dashoffset:0;stroke-opacity:1;paint-order:normal" />
  <circle
     transform="rotate(-171.46995)"
     r="7.7968826"
     cy="-390.94156"
     cx="-2006.7285"
     id="path4544-3-5-4"
     style="font-style:normal;font-variant:normal;font-weight:bold;font-stretch:normal;font-size:84.66666412px;line-height:1.25;font-family:'Century Gothic';-inkscape-font-specification:'Century Gothic, Bold';font-variant-ligatures:normal;font-variant-caps:normal;font-variant-numeric:normal;font-feature-settings:normal;text-align:center;letter-spacing:0px;word-spacing:0px;writing-mode:lr-tb;text-anchor:middle;opacity:1;fill:#f4c100;fill-opacity:1;stroke:none;stroke-width:11.08410645;stroke-linecap:square;stroke-linejoin:round;stroke-miterlimit:4;stroke-dasharray:none;stroke-dashoffset:0;stroke-opacity:1;paint-order:normal" />
  <circle
     r="7.7968826"
     cy="1677.8757"
     cx="268.56958"
     id="path4544-3-5-3"
     style="font-style:normal;font-variant:normal;font-weight:bold;font-stretch:normal;font-size:84.66666412px;line-height:1.25;font-family:'Century Gothic';-inkscape-font-specification:'Century Gothic, Bold';font-variant-ligatures:normal;font-variant-caps:normal;font-variant-numeric:normal;font-feature-settings:normal;text-align:center;letter-spacing:0px;word-spacing:0px;writing-mode:lr-tb;text-anchor:middle;opacity:1;fill:#264488;fill-opacity:1;stroke:none;stroke-width:11.08410645;stroke-linecap:square;stroke-linejoin:round;stroke-miterlimit:4;stroke-dasharray:none;stroke-dashoffset:0;stroke-opacity:1;paint-order:normal" />
  <metadata
     id="metadata4492">
    <rdf:RDF>
      <cc:Work
         rdf:about="">
        <dc:title></dc:title>
        <dc:format>image/svg+xml</dc:format>
        <dc:type
           rdf:resource="http://purl.org/dc/dcmitype/StillImage" />
      </cc:Work>
    </rdf:RDF>
  </metadata>
  <rect
     y="9.1552734e-005"
     x="-4.5474735e-013"
     height="2116.6667"
     width="2116.6667"
     id="rect4495-0"
     style="font-style:normal;font-variant:normal;font-weight:bold;font-stretch:normal;font-size:medium;line-height:1.25;font-family:'Century Gothic';-inkscape-font-specification:'Century Gothic, Bold';font-variant-ligatures:normal;font-variant-caps:normal;font-variant-numeric:normal;font-feature-settings:normal;text-align:center;letter-spacing:0px;word-spacing:0px;writing-mode:lr-tb;text-anchor:middle;opacity:1;fill:#ffffff;fill-opacity:0.54988397;stroke:none;stroke-width:230.03804016;stroke-linecap:square;stroke-linejoin:round;stroke-miterlimit:4;stroke-dasharray:none;stroke-dashoffset:0;stroke-opacity:1;paint-order:normal" />
  <path
     inkscape:connector-curvature="0"
     id="path1181"
     style="font-style:normal;font-variant:normal;font-weight:bold;font-stretch:normal;font-size:247.43066406px;line-height:1.25;font-family:'Ubuntu Mono';-inkscape-font-specification:'Ubuntu Mono Bold';text-align:end;letter-spacing:0px;word-spacing:0px;text-anchor:end;fill:#c8c8c8;fill-opacity:1;stroke:none;stroke-width:2.89957786"
     d="m 724.05347,1066.2611 c 0,20.2893 4.45375,37.9394 13.36125,52.9501 9.07246,14.8459 21.52647,26.8875 37.36203,36.1249 l 0.24855,11.8668 -14.35209,6.9379 c -22.43371,-12.3715 -38.84662,-27.7947 -49.23871,-46.2695 -10.39209,-18.4748 -15.58813,-39.0115 -15.58813,-61.6102 0,-22.7637 5.361,-43.6303 16.083,-62.6 10.72199,-19.13462 27.29985,-34.8877 49.73356,-47.25923 l 14.35209,-6.93798 -0.24854,25.74271 c -15.83557,9.23741 -28.45453,21.60894 -37.85689,37.1146 -9.23741,15.5057 -13.85612,33.4856 -13.85612,53.9399 z"
     sodipodi:nodetypes="sccccsscccccs" />
  <path
     style="font-style:normal;font-variant:normal;font-weight:bold;font-stretch:normal;font-size:247.43066406px;line-height:1.25;font-family:'Ubuntu Mono';-inkscape-font-specification:'Ubuntu Mono Bold';text-align:end;letter-spacing:0px;word-spacing:0px;text-anchor:end;fill:#c8c8c8;fill-opacity:1;stroke:none;stroke-width:2.89957786"
     d="m 992.29177,981.38698 c 0,5.93834 9.11833,5.37786 9.11833,5.37786 0,0 -5.43073,3.30373 -4.16479,4.28761 0,0 -14.99206,7.50152 -15.64198,7.80521 -2.6092,1.21924 -5.47949,1.82904 -8.61115,1.82904 -5.27852,0 -9.81475,-1.73204 -13.60869,-5.19617 -3.62898,-3.46403 -5.44347,-8.16521 -5.44347,-14.10355 0,-6.10329 1.81449,-10.88694 5.44347,-14.35097 3.79394,-3.46403 19.66887,-11.73761 23.312,-10.8654 5.13345,1.229 0.11144,7.40137 3.90538,10.8654 3.79393,3.46403 5.6909,8.24768 5.6909,14.35097 z"
     id="path1200"
     inkscape:connector-curvature="0"
     sodipodi:nodetypes="scssscscscs" />
  <path
     style="font-style:normal;font-variant:normal;font-weight:bold;font-stretch:normal;font-size:247.43066406px;line-height:1.25;font-family:'Ubuntu Mono';-inkscape-font-specification:'Ubuntu Mono Bold';text-align:end;letter-spacing:0px;word-spacing:0px;text-anchor:end;fill:#c8c8c8;fill-opacity:1;stroke:none;stroke-width:2.89957786"
     d="m 1049.9207,1120.191 c -0.2934,0.139 -14.9381,7.2138 -15.2301,7.3484 -5.9454,2.7419 -11.591,4.5846 -16.9369,5.528 -5.4435,1.1547 -10.4746,1.732 -15.0933,1.732 -7.91779,0 -14.59842,-1.1547 -20.04189,-3.4641 -5.27852,-2.3093 -9.56732,-5.6084 -12.86639,-9.8972 -3.13412,-4.4537 -5.361,-9.8147 -6.68063,-16.083 -1.31963,-6.2682 -1.97945,-13.4437 -1.97945,-21.5264 v -42.8055 h -32.16598 v -25.238 l 14.35208,-6.938 48.24788,6.938 v 72.0023 c 0,6.9281 1.23715,12.1241 3.71146,15.5882 2.63926,3.2991 6.92802,4.9486 12.86642,4.9486 2.8042,0 6.1857,-0.3299 10.1446,-0.9897 3.9589,-0.8248 8.4127,-2.3919 13.3613,-4.7012 z"
     id="path1183" />
  <path
     inkscape:connector-curvature="0"
     id="path1185"
     style="font-style:normal;font-variant:normal;font-weight:bold;font-stretch:normal;font-size:247.43066406px;line-height:1.25;font-family:'Ubuntu Mono';-inkscape-font-specification:'Ubuntu Mono Bold';text-align:end;letter-spacing:0px;word-spacing:0px;text-anchor:end;fill:#c8c8c8;fill-opacity:1;stroke:none;stroke-width:2.89957786"
     d="m 1100.1481,1109.0666 c 7.4229,0 13.1138,-0.4949 17.0727,-1.4846 3.9589,-1.1547 5.9383,-3.3815 5.9383,-6.6806 0,-2.1444 -0.6598,-3.9589 -1.9794,-5.4435 -1.1547,-1.4846 -2.8867,-2.7218 -5.1961,-3.7115 -2.1444,-1.1547 -4.7012,-2.2269 -7.6703,-3.2166 -2.8042,-0.9897 -5.7734,-1.9794 -8.9075,-2.9691 -4.4537,-1.3197 -8.99,-2.8043 -13.6087,-4.4538 -4.6187,-1.8145 -8.8251,-4.0413 -12.619,-6.6806 -3.7939,-2.6393 -6.928,-5.9383 -9.4023,-9.8972 -2.4743,-4.1239 -3.7115,-9.2374 -3.7115,-15.3407 0,-4.9487 0.9072,-9.5674 2.7217,-13.8562 1.9795,-4.4537 4.9487,-8.3301 8.9076,-11.6292 4.1238,-3.464 16.0794,-9.5921 22.3477,-11.4066 6.2682,-1.9794 7.014,0.5197 15.7566,0.5197 7.5879,0 14.5984,0.5773 21.0316,1.732 6.5981,1.1547 12.289,2.8042 17.0727,4.9486 l 9.6509,18.7948 -14.3521,6.938 c -2.8042,-0.8248 -7.1755,-2.1444 -13.1138,-3.9589 -5.9383,-1.9795 -12.619,-2.9692 -20.0419,-2.9692 -7.7528,0 -13.0313,0.9897 -15.8356,2.9692 -2.6392,1.8145 -3.9588,3.7939 -3.9588,5.9383 0,1.8145 0.5773,3.4641 1.732,4.9486 1.3196,1.3197 2.9691,2.5568 4.9486,3.7115 2.1444,1.1547 4.5362,2.3093 7.1755,3.464 2.8042,0.9897 5.7734,1.9795 8.9075,2.9692 4.4537,1.4846 9.0724,3.1341 13.8561,4.9486 4.7837,1.8145 9.0725,4.1238 12.8664,6.9281 3.9589,2.6393 7.1755,6.1033 9.6498,10.392 2.4743,4.1239 3.7114,9.2375 3.7114,15.3408 0,4.7836 -0.9072,9.3198 -2.7217,13.6086 -1.8145,4.2888 -4.8661,8.0003 -9.1549,11.1344 -4.1239,3.1341 -9.5674,5.6084 -16.3305,7.4229 -6.7631,1.8145 -15.0932,2.7218 -24.9905,2.7218 -10.0621,0 -18.6397,-1.1547 -25.7327,-3.4641 -7.0931,-2.3093 -12.784,-4.3712 -17.0728,-6.1857 l 4.7012,-25.4854 14.3521,-6.938 c 0,0 2.2047,12.8385 3.9578,13.3712 6.5981,1.9795 13.2788,2.9692 20.0419,2.9692 z"
     sodipodi:nodetypes="scscccccscscccscccccscsccccsccssccscccccs" />
  <path
     inkscape:connector-curvature="0"
     id="path1187"
     style="font-style:normal;font-variant:normal;font-weight:bold;font-stretch:normal;font-size:247.43066406px;line-height:1.25;font-family:'Ubuntu Mono';-inkscape-font-specification:'Ubuntu Mono Bold';text-align:end;letter-spacing:0px;word-spacing:0px;text-anchor:end;fill:#c8c8c8;fill-opacity:1;stroke:none;stroke-width:2.89957786"
     d="m 1363.9092,1066.2611 c 0,-20.4543 -4.7012,-38.4342 -14.1036,-53.9399 -9.2374,-15.50566 -21.7739,-27.87719 -37.6094,-37.1146 l 14.1035,-18.80473 14.352,-6.93798 c 0,0 26.3265,38.44252 35.3816,54.19721 10.722,18.9697 16.083,39.8363 16.083,62.6 0,22.5987 -5.1961,43.1354 -15.5882,61.6102 -8.307,14.768 -34.8866,39.3316 -34.8866,39.3316 l -14.3521,6.9379 -14.1035,-18.8047 c 15.8355,-9.2374 28.2071,-21.279 37.1146,-36.1249 9.0725,-15.0107 13.6087,-32.6608 13.6087,-52.9501 z"
     sodipodi:nodetypes="scccccscccccs" />
  <path
     inkscape:connector-curvature="0"
     id="path1172"
     style="font-style:normal;font-variant:normal;font-weight:bold;font-stretch:normal;font-size:247.4306488px;line-height:1.25;font-family:'Ubuntu Mono';-inkscape-font-specification:'Ubuntu Mono Bold';text-align:end;letter-spacing:0px;word-spacing:0px;text-anchor:end;fill:#505050;fill-opacity:1;stroke:none;stroke-width:2.89957786"
     d="m 738.40556,1059.3231 q 0,30.434 13.36126,52.9502 13.60868,22.2687 37.36203,36.1248 l -14.10355,18.8048 q -33.65057,-18.5573 -49.2387,-46.2696 -15.58813,-27.7122 -15.58813,-61.6102 0,-34.1454 16.08299,-62.59996 16.08299,-28.70195 49.73356,-47.25925 l 14.10355,18.80473 q -23.75334,13.85611 -37.85689,37.11458 -13.85612,23.2585 -13.85612,53.9399 z" />
  <path
     inkscape:connector-curvature="0"
     id="path1174"
     style="font-style:normal;font-variant:normal;font-weight:bold;font-stretch:normal;font-size:247.4306488px;line-height:1.25;font-family:'Ubuntu Mono';-inkscape-font-specification:'Ubuntu Mono Bold';text-align:end;letter-spacing:0px;word-spacing:0px;text-anchor:end;fill:#505050;fill-opacity:1;stroke:none;stroke-width:2.89957786"
     d="m 1004.6409,975.44411 q 0,8.9075 -5.69086,14.10354 -5.69091,5.19605 -13.60869,5.19605 -7.91778,0 -13.60869,-5.19605 -5.44347,-5.19604 -5.44347,-14.10354 0,-9.15494 5.44347,-14.35098 5.69091,-5.19605 13.60869,-5.19605 7.91778,0 13.60869,5.19605 5.69086,5.19604 5.69086,14.35098 z m 45.2798,144.74689 q -9.4023,4.4538 -17.815,5.9384 -8.1652,1.732 -15.0932,1.732 -11.8767,0 -20.04191,-3.464 -7.91778,-3.4641 -12.86639,-9.8973 -4.70119,-6.6806 -6.68063,-16.083 -1.97945,-9.4023 -1.97945,-21.5264 v -42.8055 h -32.16598 v -25.238 h 62.59996 v 72.0024 q 0,10.392 3.7115,15.5881 3.9588,4.9486 12.8663,4.9486 4.2064,0 10.1447,-0.9897 5.9383,-1.2372 13.3613,-4.7012 z" />
  <path
     inkscape:connector-curvature="0"
     id="path1176"
     style="font-style:normal;font-variant:normal;font-weight:bold;font-stretch:normal;font-size:247.4306488px;line-height:1.25;font-family:'Ubuntu Mono';-inkscape-font-specification:'Ubuntu Mono Bold';text-align:end;letter-spacing:0px;word-spacing:0px;text-anchor:end;fill:#505050;fill-opacity:1;stroke:none;stroke-width:2.89957786"
     d="m 1114.5001,1102.1286 q 11.1344,0 17.0728,-1.4846 5.9383,-1.732 5.9383,-6.6806 0,-3.2166 -1.9795,-5.4435 -1.732,-2.2269 -5.196,-3.7114 -3.2166,-1.7321 -7.6703,-3.2166 -4.2064,-1.4846 -8.9076,-2.9692 -6.6806,-1.9795 -13.6086,-4.4538 -6.9281,-2.7217 -12.619,-6.6806 -5.6909,-3.9589 -9.4024,-9.8972 -3.7114,-6.1858 -3.7114,-15.3407 0,-7.4229 2.7217,-13.8561 2.9692,-6.6807 8.9075,-11.6293 6.1858,-5.196 15.5881,-7.9178 9.4024,-2.9691 22.5162,-2.9691 11.3818,0 21.0316,1.732 9.8973,1.732 17.0728,4.9486 l -4.7012,25.7328 q -4.2063,-1.2372 -13.1139,-3.9589 -8.9075,-2.9692 -20.0418,-2.9692 -11.6293,0 -15.8356,2.9692 -3.9589,2.7217 -3.9589,5.9383 0,2.7218 1.732,4.9486 1.9795,1.9795 4.9486,3.7115 3.2166,1.732 7.1755,3.464 4.2064,1.4846 8.9075,2.9692 6.6807,2.2269 13.8562,4.9486 7.1754,2.7218 12.8663,6.9281 5.9384,3.9589 9.6498,10.3921 3.7115,6.1857 3.7115,15.3407 0,7.1755 -2.7217,13.6086 -2.7218,6.4332 -9.155,11.1344 -6.1857,4.7012 -16.3304,7.4229 -10.1447,2.7218 -24.9905,2.7218 -15.0933,0 -25.7328,-3.464 -10.6395,-3.4641 -17.0727,-6.1858 l 4.7012,-25.4854 q 8.6601,3.4641 18.3099,6.4332 9.8972,2.9692 20.0418,2.9692 z" />
  <path
     inkscape:connector-curvature="0"
     id="path1178"
     style="font-style:normal;font-variant:normal;font-weight:bold;font-stretch:normal;font-size:247.4306488px;line-height:1.25;font-family:'Ubuntu Mono';-inkscape-font-specification:'Ubuntu Mono Bold';text-align:end;letter-spacing:0px;word-spacing:0px;text-anchor:end;fill:#505050;fill-opacity:1;stroke:none;stroke-width:2.89957786"
     d="m 1378.2612,1059.3231 q 0,-30.6814 -14.1035,-53.9399 -13.8562,-23.25847 -37.6095,-37.11458 l 14.1035,-18.80473 q 33.6506,18.5573 49.7336,47.25925 16.083,28.45456 16.083,62.59996 0,33.898 -15.5881,61.6102 -15.5882,27.7123 -49.2387,46.2696 l -14.1036,-18.8048 q 23.7534,-13.8561 37.1146,-36.1248 13.6087,-22.5162 13.6087,-52.9502 z" />
</svg>
