<?xml version="1.0" encoding="UTF-8" standalone="no"?>
<!-- Created with Inkscape (http://www.inkscape.org/) -->

<svg
   xmlns:dc="http://purl.org/dc/elements/1.1/"
   xmlns:cc="http://creativecommons.org/ns#"
   xmlns:rdf="http://www.w3.org/1999/02/22-rdf-syntax-ns#"
   xmlns:svg="http://www.w3.org/2000/svg"
   xmlns="http://www.w3.org/2000/svg"
   xmlns:sodipodi="http://sodipodi.sourceforge.net/DTD/sodipodi-0.dtd"
   xmlns:inkscape="http://www.inkscape.org/namespaces/inkscape"
   width="800"
   height="800"
   viewBox="0 0 2116.6667 2116.6667"
   version="1.1"
   id="svg8"
   inkscape:version="0.92.3 (2405546, 2018-03-11)"
   sodipodi:docname="rogo.svg"
   inkscape:export-filename="C:\Users\FMVA77HWZ\Desktop\chooslr\rogo.png"
   inkscape:export-xdpi="866.98669"
   inkscape:export-ydpi="866.98669">
  <defs
     id="defs2" />
  <sodipodi:namedview
     id="base"
     pagecolor="#000000"
     bordercolor="#666666"
     borderopacity="1.0"
     inkscape:pageopacity="0"
     inkscape:pageshadow="2"
     inkscape:zoom="0.37918602"
     inkscape:cx="400"
     inkscape:cy="400"
     inkscape:document-units="mm"
     inkscape:current-layer="svg8"
     showgrid="false"
     units="px"
     inkscape:window-width="1842"
     inkscape:window-height="1051"
     inkscape:window-x="-9"
     inkscape:window-y="-9"
     inkscape:window-maximized="1"
     inkscape:pagecheckerboard="true"
     showguides="false" />
  <g
     aria-label="chooslr"
     style="font-style:normal;font-variant:normal;font-weight:bold;font-stretch:normal;font-size:84.66666412px;line-height:1.25;font-family:'Century Gothic';-inkscape-font-specification:'Century Gothic, Bold';font-variant-ligatures:normal;font-variant-caps:normal;font-variant-numeric:normal;font-feature-settings:normal;text-align:center;letter-spacing:0px;word-spacing:0px;writing-mode:lr-tb;text-anchor:middle;fill:#000000;fill-opacity:1;stroke:none;stroke-width:9.45194912"
     id="text4490"
     transform="matrix(3.5277778,0,0,3.5277778,0,6.6695395e-5)">
    <rect
       style="opacity:1;fill:#f0f0f0;fill-opacity:1;stroke:none;stroke-width:65.20763397;stroke-linecap:square;stroke-linejoin:round;stroke-miterlimit:4;stroke-dasharray:none;stroke-dashoffset:0;stroke-opacity:1;paint-order:normal"
       id="rect4495"
       width="600"
       height="600"
       x="-8.8817842e-016"
       y="-2.6384991e-005" />
    <path
       d="m 180.4873,287.385 -8.36115,4.60415 q -2.35734,-2.46783 -4.67783,-3.42549 -2.28366,-0.95767 -5.37765,-0.95767 -5.6355,0 -9.13466,3.38866 -3.46233,3.35184 -3.46233,8.61898 0,5.11983 3.35183,8.36116 3.35183,3.24132 8.80315,3.24132 6.74048,0 10.49749,-4.60414 l 7.91915,5.41448 q -6.44583,8.36115 -18.19564,8.36115 -10.57115,0 -16.57496,-6.26165 -5.967,-6.26165 -5.967,-14.65966 0,-5.81964 2.90982,-10.71847 2.90984,-4.89882 8.10333,-7.69816 5.23031,-2.79932 11.67615,-2.79932 5.96698,0 10.71848,2.39416 4.75149,2.35733 7.77182,6.7405 z"
       style="font-style:normal;font-variant:normal;font-weight:bold;font-stretch:normal;font-size:84.66666412px;font-family:'Century Gothic';-inkscape-font-specification:'Century Gothic, Bold';font-variant-ligatures:normal;font-variant-caps:normal;font-variant-numeric:normal;font-feature-settings:normal;text-align:center;writing-mode:lr-tb;text-anchor:middle;fill:#c8c8c8;fill-opacity:1;stroke-width:8.42129993"
       id="path4512"
       inkscape:connector-curvature="0" />
    <path
       d="m 226.66136,264.84304 h 9.98181 v 19.52162 q 2.94667,-2.5415 5.93016,-3.79383 2.98349,-1.28916 6.04066,-1.28916 5.96698,0 10.05548,4.12533 3.49917,3.57282 3.49917,10.49748 v 26.48312 h -9.90816 v -17.56947 q 0,-6.96149 -0.663,-9.42932 -0.663,-2.46782 -2.28367,-3.68332 -1.58382,-1.2155 -3.94114,-1.2155 -3.05718,0 -5.26717,2.02582 -2.17317,2.02585 -3.02032,5.525 -0.44201,1.80483 -0.44201,8.25065 v 16.09614 h -9.98181 z"
       style="font-style:normal;font-variant:normal;font-weight:bold;font-stretch:normal;font-size:84.66666412px;font-family:'Century Gothic';-inkscape-font-specification:'Century Gothic, Bold';font-variant-ligatures:normal;font-variant-caps:normal;font-variant-numeric:normal;font-feature-settings:normal;text-align:center;writing-mode:lr-tb;text-anchor:middle;fill:#c8c8c8;fill-opacity:1;stroke-width:8.42129993"
       id="path4514"
       inkscape:connector-curvature="0" />
    <path
       d="m 98.351693,449.30734 q 3.977547,0 7.464357,1.98878 3.51263,1.98877 5.47559,5.39809 1.96293,3.40933 1.96293,7.36105 0,3.97755 -1.98877,7.43854 -1.96294,3.46098 -5.37227,5.42392 -3.40932,1.93712 -7.515997,1.93712 -6.043797,0 -10.331286,-4.28749 -4.261647,-4.31331 -4.261647,-10.46043 0,-6.58619 4.829877,-10.977 4.235819,-3.82258 9.737216,-3.82258 z m 0.10332,6.63786 q -3.28019,0 -5.475567,2.29871 -2.16958,2.27288 -2.16958,5.83718 0,3.66761 2.14375,5.94049 2.169557,2.27288 5.475577,2.27288 3.305997,0 5.501397,-2.2987 2.1954,-2.29872 2.1954,-5.91467 0,-3.61595 -2.16958,-5.86301 -2.14373,-2.27288 -5.501397,-2.27288 z"
       style="font-style:normal;font-variant:normal;font-weight:bold;font-stretch:normal;font-size:84.66666412px;font-family:'Century Gothic';-inkscape-font-specification:'Century Gothic, Bold';font-variant-ligatures:normal;font-variant-caps:normal;font-variant-numeric:normal;font-feature-settings:normal;text-align:center;writing-mode:lr-tb;text-anchor:middle;fill:#264488;fill-opacity:1;stroke-width:5.9051857"
       id="path4516"
       inkscape:connector-curvature="0" />
    <path
       d="m 517.7959,126.5998 q 3.97786,0 7.46495,1.98893 3.51292,1.98893 5.476,5.39853 1.96309,3.4096 1.96309,7.36164 0,3.97786 -1.98893,7.43912 -1.96311,3.46125 -5.37269,5.42435 -3.40961,1.93727 -7.51661,1.93727 -6.04429,0 -10.33213,-4.28783 -4.26199,-4.31365 -4.26199,-10.46126 0,-6.58672 4.83026,-10.97787 4.23618,-3.82288 9.73805,-3.82288 z m 0.10331,6.63839 q -3.28045,0 -5.47602,2.29889 -2.16973,2.27307 -2.16973,5.83764 0,3.6679 2.1439,5.94096 2.16974,2.27307 5.47603,2.27307 3.30627,0 5.50185,-2.2989 2.19557,-2.29888 2.19557,-5.91513 0,-3.61624 -2.16974,-5.86347 -2.14392,-2.27306 -5.50186,-2.27306 z"
       style="font-style:normal;font-variant:normal;font-weight:bold;font-stretch:normal;font-size:84.66666412px;font-family:'Century Gothic';-inkscape-font-specification:'Century Gothic, Bold';font-variant-ligatures:normal;font-variant-caps:normal;font-variant-numeric:normal;font-feature-settings:normal;text-align:center;writing-mode:lr-tb;text-anchor:middle;opacity:0.97000002;fill:#f4c100;fill-opacity:1;stroke-width:5.90565443"
       id="path4518"
       inkscape:connector-curvature="0" />
    <path
       d="m 336.04135,284.88032 -6.22483,6.22483 q -3.79383,-3.757 -6.88782,-3.757 -1.69433,0 -2.65198,0.73667 -0.95767,0.69983 -0.95767,1.76801 0,0.81032 0.58932,1.51015 0.62617,0.663 3.02033,1.84166 l 3.68332,1.84168 q 5.81966,2.87299 7.99283,5.85648 2.17317,2.9835 2.17317,6.99832 0,5.34082 -3.94116,8.91365 -3.90433,3.57283 -10.49749,3.57283 -8.76631,0 -13.99664,-6.85098 l 6.188,-6.7405 q 1.76799,2.06267 4.12531,3.35183 2.39417,1.25234 4.23583,1.25234 1.989,0 3.20449,-0.95766 1.2155,-0.95767 1.2155,-2.21001 0,-2.3205 -4.38316,-4.53049 l -3.38865,-1.69434 q -9.72399,-4.89882 -9.72399,-12.26547 0,-4.7515 3.64649,-8.10331 3.68333,-3.38867 9.3925,-3.38867 3.90431,0 7.32981,1.73116 3.46232,1.69433 5.85649,4.89882 z"
       style="font-style:normal;font-variant:normal;font-weight:bold;font-stretch:normal;font-size:84.66666412px;font-family:'Century Gothic';-inkscape-font-specification:'Century Gothic, Bold';font-variant-ligatures:normal;font-variant-caps:normal;font-variant-numeric:normal;font-feature-settings:normal;text-align:center;writing-mode:lr-tb;text-anchor:middle;fill:#c8c8c8;fill-opacity:1;stroke-width:8.42129993"
       id="path4520"
       inkscape:connector-curvature="0" />
    <path
       d="m 382.95212,264.84304 h 10.05549 v 55.54456 h -10.05549 z"
       style="font-style:normal;font-variant:normal;font-weight:bold;font-stretch:normal;font-size:84.66666412px;font-family:'Century Gothic';-inkscape-font-specification:'Century Gothic, Bold';font-variant-ligatures:normal;font-variant-caps:normal;font-variant-numeric:normal;font-feature-settings:normal;text-align:center;writing-mode:lr-tb;text-anchor:middle;fill:#c8c8c8;fill-opacity:1;stroke-width:8.42129993"
       id="path4522"
       inkscape:connector-curvature="0" />
    <path
       d="m 439.18167,280.31301 h 8.61899 v 5.04615 q 1.39967,-2.9835 3.72016,-4.53049 2.32049,-1.547 5.08299,-1.547 1.95216,0 4.0885,1.03134 l -3.13083,8.65582 q -1.768,-0.88401 -2.90983,-0.88401 -2.32049,0 -3.94116,2.873 -1.58383,2.87299 -1.58383,11.27098 l 0.0368,1.95216 v 16.20664 h -9.98181 z"
       style="font-style:normal;font-variant:normal;font-weight:bold;font-stretch:normal;font-size:84.66666412px;font-family:'Century Gothic';-inkscape-font-specification:'Century Gothic, Bold';font-variant-ligatures:normal;font-variant-caps:normal;font-variant-numeric:normal;font-feature-settings:normal;text-align:center;writing-mode:lr-tb;text-anchor:middle;fill:#c8c8c8;fill-opacity:1;stroke-width:8.42129993"
       id="path4524"
       inkscape:connector-curvature="0" />
    <circle
       style="font-style:normal;font-variant:normal;font-weight:bold;font-stretch:normal;font-size:84.66666412px;line-height:1.25;font-family:'Century Gothic';-inkscape-font-specification:'Century Gothic, Bold';font-variant-ligatures:normal;font-variant-caps:normal;font-variant-numeric:normal;font-feature-settings:normal;text-align:center;letter-spacing:0px;word-spacing:0px;writing-mode:lr-tb;text-anchor:middle;opacity:1;fill:#264488;fill-opacity:1;stroke:none;stroke-width:6.62141037;stroke-linecap:square;stroke-linejoin:round;stroke-miterlimit:4;stroke-dasharray:none;stroke-dashoffset:0;stroke-opacity:1;paint-order:normal"
       id="path4544-3"
       cx="87.209084"
       cy="436.95618"
       r="4.6576924" />
    <circle
       style="font-style:normal;font-variant:normal;font-weight:bold;font-stretch:normal;font-size:84.66666412px;line-height:1.25;font-family:'Century Gothic';-inkscape-font-specification:'Century Gothic, Bold';font-variant-ligatures:normal;font-variant-caps:normal;font-variant-numeric:normal;font-feature-settings:normal;text-align:center;letter-spacing:0px;word-spacing:0px;writing-mode:lr-tb;text-anchor:middle;opacity:1;fill:#264488;fill-opacity:1;stroke:none;stroke-width:3.14195132;stroke-linecap:square;stroke-linejoin:round;stroke-miterlimit:4;stroke-dasharray:none;stroke-dashoffset:0;stroke-opacity:1;paint-order:normal"
       id="path4544-3-5-2"
       cx="64.5812"
       cy="438.46094"
       r="2.21014" />
    <circle
       style="font-style:normal;font-variant:normal;font-weight:bold;font-stretch:normal;font-size:84.66666412px;line-height:1.25;font-family:'Century Gothic';-inkscape-font-specification:'Century Gothic, Bold';font-variant-ligatures:normal;font-variant-caps:normal;font-variant-numeric:normal;font-feature-settings:normal;text-align:center;letter-spacing:0px;word-spacing:0px;writing-mode:lr-tb;text-anchor:middle;opacity:1;fill:#f4c100;fill-opacity:1;stroke:none;stroke-width:6.62140989;stroke-linecap:square;stroke-linejoin:round;stroke-miterlimit:4;stroke-dasharray:none;stroke-dashoffset:0;stroke-opacity:1;paint-order:normal"
       id="path4544-3-4"
       cx="-556.41107"
       cy="-99.990486"
       r="4.6576924"
       transform="rotate(-171.46995)" />
    <circle
       style="font-style:normal;font-variant:normal;font-weight:bold;font-stretch:normal;font-size:84.66666412px;line-height:1.25;font-family:'Century Gothic';-inkscape-font-specification:'Century Gothic, Bold';font-variant-ligatures:normal;font-variant-caps:normal;font-variant-numeric:normal;font-feature-settings:normal;text-align:center;letter-spacing:0px;word-spacing:0px;writing-mode:lr-tb;text-anchor:middle;opacity:1;fill:#f4c100;fill-opacity:1;stroke:none;stroke-width:3.80958271;stroke-linecap:square;stroke-linejoin:round;stroke-miterlimit:4;stroke-dasharray:none;stroke-dashoffset:0;stroke-opacity:1;paint-order:normal"
       id="path4544-3-2-1"
       cx="-554.64478"
       cy="-81.551643"
       transform="rotate(-171.46995)"
       r="2.6797714" />
    <circle
       style="font-style:normal;font-variant:normal;font-weight:bold;font-stretch:normal;font-size:84.66666412px;line-height:1.25;font-family:'Century Gothic';-inkscape-font-specification:'Century Gothic, Bold';font-variant-ligatures:normal;font-variant-caps:normal;font-variant-numeric:normal;font-feature-settings:normal;text-align:center;letter-spacing:0px;word-spacing:0px;writing-mode:lr-tb;text-anchor:middle;opacity:1;fill:#f4c100;fill-opacity:1;stroke:none;stroke-width:3.14195132;stroke-linecap:square;stroke-linejoin:round;stroke-miterlimit:4;stroke-dasharray:none;stroke-dashoffset:0;stroke-opacity:1;paint-order:normal"
       id="path4544-3-5-4"
       cx="-568.83643"
       cy="-110.81806"
       r="2.21014"
       transform="rotate(-171.46995)" />
    <circle
       style="font-style:normal;font-variant:normal;font-weight:bold;font-stretch:normal;font-size:84.66666412px;line-height:1.25;font-family:'Century Gothic';-inkscape-font-specification:'Century Gothic, Bold';font-variant-ligatures:normal;font-variant-caps:normal;font-variant-numeric:normal;font-feature-settings:normal;text-align:center;letter-spacing:0px;word-spacing:0px;writing-mode:lr-tb;text-anchor:middle;opacity:1;fill:#264488;fill-opacity:1;stroke:none;stroke-width:3.14195132;stroke-linecap:square;stroke-linejoin:round;stroke-miterlimit:4;stroke-dasharray:none;stroke-dashoffset:0;stroke-opacity:1;paint-order:normal"
       id="path4544-3-5-3"
       cx="76.129959"
       cy="475.61829"
       r="2.21014" />
  </g>
  <metadata
     id="metadata4492">
    <rdf:RDF>
      <cc:Work
         rdf:about="">
        <dc:title></dc:title>
        <dc:format>image/svg+xml</dc:format>
        <dc:type
           rdf:resource="http://purl.org/dc/dcmitype/StillImage" />
      </cc:Work>
    </rdf:RDF>
  </metadata>
</svg>
