<?xml version="1.0" encoding="UTF-8" standalone="no"?>
<!-- Created with Inkscape (http://www.inkscape.org/) -->

<svg
   xmlns:dc="http://purl.org/dc/elements/1.1/"
   xmlns:cc="http://creativecommons.org/ns#"
   xmlns:rdf="http://www.w3.org/1999/02/22-rdf-syntax-ns#"
   xmlns:svg="http://www.w3.org/2000/svg"
   xmlns="http://www.w3.org/2000/svg"
   xmlns:sodipodi="http://sodipodi.sourceforge.net/DTD/sodipodi-0.dtd"
   xmlns:inkscape="http://www.inkscape.org/namespaces/inkscape"
   width="684"
   height="225"
   viewBox="0 0 1809.75 595.31251"
   version="1.1"
   id="svg8"
   inkscape:version="0.92.3 (2405546, 2018-03-11)"
   sodipodi:docname="rogo.oblong.svg"
   inkscape:export-filename="C:\Users\FMVA77HWZ\Desktop\chooslr\rogo.png"
   inkscape:export-xdpi="866.98669"
   inkscape:export-ydpi="866.98669">
  <defs
     id="defs2" />
  <sodipodi:namedview
     id="base"
     pagecolor="#000000"
     bordercolor="#666666"
     borderopacity="1.0"
     inkscape:pageopacity="0"
     inkscape:pageshadow="2"
     inkscape:zoom="0.91916186"
     inkscape:cx="341.78958"
     inkscape:cy="116.36295"
     inkscape:document-units="mm"
     inkscape:current-layer="svg8"
     showgrid="false"
     units="px"
     inkscape:window-width="1305"
     inkscape:window-height="1041"
     inkscape:window-x="-8"
     inkscape:window-y="0"
     inkscape:window-maximized="0"
     inkscape:pagecheckerboard="true"
     showguides="false" />
  <path
     inkscape:connector-curvature="0"
     id="path4512"
     style="font-style:normal;font-variant:normal;font-weight:bold;font-stretch:normal;font-size:84.66666412px;line-height:1.25;font-family:'Century Gothic';-inkscape-font-specification:'Century Gothic, Bold';font-variant-ligatures:normal;font-variant-caps:normal;font-variant-numeric:normal;font-feature-settings:normal;text-align:center;letter-spacing:0px;word-spacing:0px;writing-mode:lr-tb;text-anchor:middle;fill:#c8c8c8;fill-opacity:1;stroke:none;stroke-width:20.36454773"
     d="m 615.86675,263.8415 -20.21909,11.13385 q -5.70057,-5.96775 -11.31202,-8.28358 -5.52239,-2.31585 -13.00433,-2.31585 -13.62787,0 -22.08961,8.19452 -8.37267,8.10547 -8.37267,20.84257 0,12.38088 8.10546,20.21913 8.10545,7.83821 21.28794,7.83821 16.29995,0 25.38523,-11.13382 l 19.15023,13.0934 q -15.58742,20.21909 -44.00103,20.21909 -25.56336,0 -40.08189,-15.14204 -14.42952,-15.14204 -14.42952,-35.45027 0,-14.07316 7.03659,-25.9196 7.03664,-11.84642 19.59563,-18.61585 12.64804,-6.76936 28.23549,-6.76936 14.42946,0 25.91963,5.78961 11.49015,5.70054 18.79396,16.29999 z" />
  <path
     inkscape:connector-curvature="0"
     id="path4514"
     style="font-style:normal;font-variant:normal;font-weight:bold;font-stretch:normal;font-size:84.66666412px;line-height:1.25;font-family:'Century Gothic';-inkscape-font-specification:'Century Gothic, Bold';font-variant-ligatures:normal;font-variant-caps:normal;font-variant-numeric:normal;font-feature-settings:normal;text-align:center;letter-spacing:0px;word-spacing:0px;writing-mode:lr-tb;text-anchor:middle;fill:#c8c8c8;fill-opacity:1;stroke:none;stroke-width:20.36454773"
     d="m 727.52599,209.33012 h 24.13821 v 47.20754 q 7.12569,-6.1459 14.34043,-9.1743 7.21473,-3.11747 14.60763,-3.11747 14.42946,0 24.31635,9.97595 8.46176,8.63986 8.46176,25.3852 v 64.04198 h -23.9601 v -42.48683 q 0,-16.8344 -1.60328,-22.80216 -1.60327,-5.96773 -5.52241,-8.90707 -3.83002,-2.93934 -9.53054,-2.93934 -7.39293,0 -12.73717,4.89888 -5.2552,4.89894 -7.3038,13.36066 -1.06887,4.36447 -1.06887,19.95187 v 38.92399 h -24.13821 z" />
  <path
     inkscape:connector-curvature="0"
     id="path4516"
     style="font-style:normal;font-variant:normal;font-weight:bold;font-stretch:normal;font-size:84.66666412px;line-height:1.25;font-family:'Century Gothic';-inkscape-font-specification:'Century Gothic, Bold';font-variant-ligatures:normal;font-variant-caps:normal;font-variant-numeric:normal;font-feature-settings:normal;text-align:center;letter-spacing:0px;word-spacing:0px;writing-mode:lr-tb;text-anchor:middle;fill:#264488;fill-opacity:1;stroke:none;stroke-width:12.47616768"
     d="m 168.59132,450.08859 q 8.40355,0 15.7703,4.20179 7.42131,4.20177 11.56855,11.4048 4.14717,7.20305 4.14717,15.55205 0,8.40356 -4.20178,15.71575 -4.14719,7.31218 -11.35024,11.45938 -7.20304,4.09264 -15.87941,4.09264 -12.76902,0 -21.8274,-9.05838 -9.00379,-9.11294 -9.00379,-22.10025 0,-13.91496 10.20432,-23.19164 8.94922,-8.07614 20.57228,-8.07614 z m 0.21829,14.02412 q -6.93022,0 -11.56849,4.85659 -4.58378,4.80203 -4.58378,12.3325 0,7.74873 4.5292,12.55076 4.58374,4.80202 11.56852,4.80202 6.98473,0 11.62306,-4.85658 4.63833,-4.85662 4.63833,-12.4962 0,-7.6396 -4.58378,-12.38706 -4.52916,-4.80203 -11.62306,-4.80203 z" />
  <path
     inkscape:connector-curvature="0"
     id="path4518"
     style="font-style:normal;font-variant:normal;font-weight:bold;font-stretch:normal;font-size:84.66666412px;line-height:1.25;font-family:'Century Gothic';-inkscape-font-specification:'Century Gothic, Bold';font-variant-ligatures:normal;font-variant-caps:normal;font-variant-numeric:normal;font-feature-settings:normal;text-align:center;letter-spacing:0px;word-spacing:0px;writing-mode:lr-tb;text-anchor:middle;opacity:0.97000002;fill:#f4c100;fill-opacity:1;stroke:none;stroke-width:12.47715855"
     d="m 1651.5801,62.356046 q 8.4042,0 15.7716,4.202104 7.4219,4.202103 11.5694,11.405716 4.1476,7.203607 4.1476,15.55326 0,8.404204 -4.2022,15.716984 -4.1475,7.31276 -11.3512,11.4603 -7.2036,4.09296 -15.8807,4.09296 -12.77,0 -21.8291,-9.05911 -9.0045,-9.11367 -9.0045,-22.102018 0,-13.916079 10.2051,-23.193461 8.95,-8.076735 20.574,-8.076735 z m 0.2183,14.025195 q -6.9308,0 -11.5694,4.856984 -4.5842,4.802431 -4.5842,12.333455 0,7.74932 4.5296,12.55176 4.5841,4.80242 11.5694,4.80242 6.9853,0 11.6241,-4.85698 4.6386,-4.85699 4.6386,-12.4972 0,-7.640202 -4.584,-12.388009 -4.5296,-4.80243 -11.6241,-4.80243 z" />
  <path
     inkscape:connector-curvature="0"
     id="path4520"
     style="font-style:normal;font-variant:normal;font-weight:bold;font-stretch:normal;font-size:84.66666412px;line-height:1.25;font-family:'Century Gothic';-inkscape-font-specification:'Century Gothic, Bold';font-variant-ligatures:normal;font-variant-caps:normal;font-variant-numeric:normal;font-feature-settings:normal;text-align:center;letter-spacing:0px;word-spacing:0px;writing-mode:lr-tb;text-anchor:middle;fill:#c8c8c8;fill-opacity:1;stroke:none;stroke-width:20.36454773"
     d="m 992.03093,257.78464 -15.053,15.05301 q -9.1743,-9.08525 -16.6562,-9.08525 -4.0973,0 -6.4131,1.78143 -2.3158,1.69234 -2.3158,4.27543 0,1.95954 1.425,3.65188 1.5143,1.60328 7.3039,4.45353 l 8.907,4.45359 q 14.0732,6.94752 19.3285,14.16225 5.2551,7.21476 5.2551,16.92348 0,12.91526 -9.5305,21.55515 -9.4416,8.63988 -25.3852,8.63988 -21.1989,0 -33.847,-16.56716 l 14.9639,-16.30001 q 4.2754,4.98798 9.976,8.10545 5.7896,3.02844 10.2431,3.02844 4.8098,0 7.7492,-2.31583 2.9393,-2.31586 2.9393,-5.34429 0,-5.61148 -10.5994,-10.95572 l -8.1945,-4.09728 q -23.5148,-11.84642 -23.5148,-29.6606 0,-11.49016 8.818,-19.59557 8.9072,-8.19455 22.7132,-8.19455 9.4414,0 17.725,4.18633 8.3727,4.09725 14.1623,11.84641 z" />
  <path
     inkscape:connector-curvature="0"
     id="path4522"
     style="font-style:normal;font-variant:normal;font-weight:bold;font-stretch:normal;font-size:84.66666412px;line-height:1.25;font-family:'Century Gothic';-inkscape-font-specification:'Century Gothic, Bold';font-variant-ligatures:normal;font-variant-caps:normal;font-variant-numeric:normal;font-feature-settings:normal;text-align:center;letter-spacing:0px;word-spacing:0px;writing-mode:lr-tb;text-anchor:middle;fill:#c8c8c8;fill-opacity:1;stroke:none;stroke-width:20.36454773"
     d="m 1105.4716,209.33012 h 24.3163 v 134.3189 h -24.3163 z" />
  <path
     inkscape:connector-curvature="0"
     id="path4524"
     style="font-style:normal;font-variant:normal;font-weight:bold;font-stretch:normal;font-size:84.66666412px;line-height:1.25;font-family:'Century Gothic';-inkscape-font-specification:'Century Gothic, Bold';font-variant-ligatures:normal;font-variant-caps:normal;font-variant-numeric:normal;font-feature-settings:normal;text-align:center;letter-spacing:0px;word-spacing:0px;writing-mode:lr-tb;text-anchor:middle;fill:#c8c8c8;fill-opacity:1;stroke:none;stroke-width:20.36454773"
     d="m 1241.4472,246.73989 h 20.8426 v 12.20269 q 3.3847,-7.21475 8.9961,-10.95571 5.6115,-3.74098 12.2919,-3.74098 4.7206,0 9.8868,2.494 l -7.571,20.93167 q -4.2755,-2.13773 -7.0366,-2.13773 -5.6115,0 -9.5306,6.94754 -3.83,6.94752 -3.83,27.25569 l 0.089,4.72076 v 39.1912 h -24.1381 z" />
  <circle
     r="9.8405275"
     cy="423.99341"
     cx="145.04979"
     id="path4544-3"
     style="font-style:normal;font-variant:normal;font-weight:bold;font-stretch:normal;font-size:84.66666412px;line-height:1.25;font-family:'Century Gothic';-inkscape-font-specification:'Century Gothic, Bold';font-variant-ligatures:normal;font-variant-caps:normal;font-variant-numeric:normal;font-feature-settings:normal;text-align:center;letter-spacing:0px;word-spacing:0px;writing-mode:lr-tb;text-anchor:middle;opacity:1;fill:#264488;fill-opacity:1;stroke:none;stroke-width:13.98936844;stroke-linecap:square;stroke-linejoin:round;stroke-miterlimit:4;stroke-dasharray:none;stroke-dashoffset:0;stroke-opacity:1;paint-order:normal" />
  <circle
     r="4.6694684"
     cy="427.17261"
     cx="97.242783"
     id="path4544-3-5-2"
     style="font-style:normal;font-variant:normal;font-weight:bold;font-stretch:normal;font-size:84.66666412px;line-height:1.25;font-family:'Century Gothic';-inkscape-font-specification:'Century Gothic, Bold';font-variant-ligatures:normal;font-variant-caps:normal;font-variant-numeric:normal;font-feature-settings:normal;text-align:center;letter-spacing:0px;word-spacing:0px;writing-mode:lr-tb;text-anchor:middle;opacity:1;fill:#264488;fill-opacity:1;stroke:none;stroke-width:6.63815117;stroke-linecap:square;stroke-linejoin:round;stroke-miterlimit:4;stroke-dasharray:none;stroke-dashoffset:0;stroke-opacity:1;paint-order:normal" />
  <circle
     transform="rotate(-171.46995)"
     r="9.8405275"
     cy="74.302795"
     cx="-1696.5714"
     id="path4544-3-4"
     style="font-style:normal;font-variant:normal;font-weight:bold;font-stretch:normal;font-size:84.66666412px;line-height:1.25;font-family:'Century Gothic';-inkscape-font-specification:'Century Gothic, Bold';font-variant-ligatures:normal;font-variant-caps:normal;font-variant-numeric:normal;font-feature-settings:normal;text-align:center;letter-spacing:0px;word-spacing:0px;writing-mode:lr-tb;text-anchor:middle;opacity:1;fill:#f4c100;fill-opacity:1;stroke:none;stroke-width:13.98936749;stroke-linecap:square;stroke-linejoin:round;stroke-miterlimit:4;stroke-dasharray:none;stroke-dashoffset:0;stroke-opacity:1;paint-order:normal" />
  <circle
     r="5.6616812"
     transform="rotate(-171.46995)"
     cy="113.25949"
     cx="-1692.8397"
     id="path4544-3-2-1"
     style="font-style:normal;font-variant:normal;font-weight:bold;font-stretch:normal;font-size:84.66666412px;line-height:1.25;font-family:'Century Gothic';-inkscape-font-specification:'Century Gothic, Bold';font-variant-ligatures:normal;font-variant-caps:normal;font-variant-numeric:normal;font-feature-settings:normal;text-align:center;letter-spacing:0px;word-spacing:0px;writing-mode:lr-tb;text-anchor:middle;opacity:1;fill:#f4c100;fill-opacity:1;stroke:none;stroke-width:8.04868698;stroke-linecap:square;stroke-linejoin:round;stroke-miterlimit:4;stroke-dasharray:none;stroke-dashoffset:0;stroke-opacity:1;paint-order:normal" />
  <circle
     transform="rotate(-171.46995)"
     r="4.6694684"
     cy="51.426826"
     cx="-1722.8232"
     id="path4544-3-5-4"
     style="font-style:normal;font-variant:normal;font-weight:bold;font-stretch:normal;font-size:84.66666412px;line-height:1.25;font-family:'Century Gothic';-inkscape-font-specification:'Century Gothic, Bold';font-variant-ligatures:normal;font-variant-caps:normal;font-variant-numeric:normal;font-feature-settings:normal;text-align:center;letter-spacing:0px;word-spacing:0px;writing-mode:lr-tb;text-anchor:middle;opacity:1;fill:#f4c100;fill-opacity:1;stroke:none;stroke-width:6.63815117;stroke-linecap:square;stroke-linejoin:round;stroke-miterlimit:4;stroke-dasharray:none;stroke-dashoffset:0;stroke-opacity:1;paint-order:normal" />
  <circle
     r="4.6694684"
     cy="505.67633"
     cx="121.64236"
     id="path4544-3-5-3"
     style="font-style:normal;font-variant:normal;font-weight:bold;font-stretch:normal;font-size:84.66666412px;line-height:1.25;font-family:'Century Gothic';-inkscape-font-specification:'Century Gothic, Bold';font-variant-ligatures:normal;font-variant-caps:normal;font-variant-numeric:normal;font-feature-settings:normal;text-align:center;letter-spacing:0px;word-spacing:0px;writing-mode:lr-tb;text-anchor:middle;opacity:1;fill:#264488;fill-opacity:1;stroke:none;stroke-width:6.63815117;stroke-linecap:square;stroke-linejoin:round;stroke-miterlimit:4;stroke-dasharray:none;stroke-dashoffset:0;stroke-opacity:1;paint-order:normal" />
  <metadata
     id="metadata4492">
    <rdf:RDF>
      <cc:Work
         rdf:about="">
        <dc:title></dc:title>
        <dc:format>image/svg+xml</dc:format>
        <dc:type
           rdf:resource="http://purl.org/dc/dcmitype/StillImage" />
      </cc:Work>
    </rdf:RDF>
  </metadata>
</svg>
